<svg xmlns="http://www.w3.org/2000/svg" viewBox="0 0 128 128" role="img" aria-labelledby="title desc" fill="none">
  <title>BoltQR icon</title>
  <desc>Source logo for BoltQR extension icon set</desc>
  <rect x="2" y="2" width="124" height="124" rx="14" fill="#1E293B" />
  <rect x="2" y="2" width="124" height="124" rx="14" fill="none" stroke="#FACC15" stroke-width="8" />
  <rect x="22" y="22" width="84" height="84" rx="10" fill="#DCE5F5" />

  <g fill="#000000">
    <rect x="29" y="29" width="22" height="22" rx="4" />
    <rect x="77" y="29" width="22" height="22" rx="4" />
    <rect x="29" y="77" width="22" height="22" rx="4" />
    <rect x="53" y="53" width="22" height="10" rx="3" />
  </g>

  <g fill="#FFFFFF">
    <rect x="34" y="34" width="12" height="12" rx="2" />
    <rect x="82" y="34" width="12" height="12" rx="2" />
    <rect x="34" y="82" width="12" height="12" rx="2" />
    <rect x="72" y="54" width="14" height="6" rx="2" />
    <rect x="58" y="58" width="12" height="12" rx="2" />
  </g>

  <path
    d="M64 22 L84 53 H69 L72.5 94 L52 63 H70 L64 22 Z"
    fill="#FFFFFF"
    stroke="#FFFFFF"
    stroke-width="3"
    stroke-linejoin="round"
  />
</svg>
